<svg width="24" height="14" viewBox="0 0 24 14" version="1.1" xmlns="http://www.w3.org/2000/svg" xmlns:xlink="http://www.w3.org/1999/xlink">
<g id="Canvas" transform="translate(3102 -1683)">
<g id="Shape Copy 2">
<use xlink:href="#path0_fill" transform="matrix(-1 0 0 1 -3078 1683)" fill="#FFFFFF"/>
</g>
</g>
<defs>
<path id="path0_fill" d="M 23.4521 6.6964L 1.69863 6.6964L 10.6301 0.488348C 10.7945 0.366621 10.7945 0.1536 10.5205 0.062305C 10.3014 -0.0289899 9.91781 -0.0289899 9.75342 0.123168L 0.109589 6.81813C 0.0547945 6.87899 0 6.93986 0 7.00072L 0 7.00072L 0 7.00072L 0 7.00072C 0 7.06158 0.0547945 7.15288 0.109589 7.18331L 9.75342 13.8783C 9.86301 13.9391 10.0274 14 10.1918 14C 10.3014 14 10.411 13.9696 10.5205 13.9391C 10.7397 13.8478 10.7945 13.6348 10.6301 13.5131L 1.69863 7.30504L 23.4521 7.30504C 23.7808 7.30504 24 7.18331 24 7.00072C 24 6.81813 23.7808 6.6964 23.4521 6.6964Z"/>
</defs>
</svg>
