<svg viewBox="0 0 132 133" version="1.1" xmlns="http://www.w3.org/2000/svg" xmlns:xlink="http://www.w3.org/1999/xlink">
<g id="Canvas" transform="translate(4536 1089)">
<g id="compass" opacity="0.2">
<use xlink:href="#path0_fill" transform="translate(-4536 -1089)" fill="#1B1B1B"/>
</g>
</g>
<defs>
<path id="path0_fill" fill-rule="evenodd" d="M 0 66.0846C 0 29.6393 29.6011 0 66 0C 102.398 0 132 29.6393 132 66.0846C 132 68.5176 130.03 70.49 127.6 70.4902L 115.867 70.4902C 114.28 70.5127 112.804 69.678 112.004 68.3056C 111.204 66.9332 111.204 65.236 112.004 63.8636C 112.804 62.4912 114.28 61.6565 115.867 61.679L 122.742 61.679C 120.577 33.5546 98.4731 11.1334 70.3999 8.99487L 70.3999 16.1541C 70.4224 17.7428 69.5889 19.2207 68.2183 20.0217C 66.8477 20.8226 65.1523 20.8226 63.7817 20.0217C 62.4111 19.2207 61.5776 17.7428 61.6001 16.1541L 61.6001 8.99487C 33.4863 11.1288 11.1265 33.5327 8.9834 61.679L 16.1333 61.679C 17.7202 61.6565 19.1963 62.4912 19.9961 63.8636C 20.7959 65.236 20.7959 66.9332 19.9961 68.3056C 19.1963 69.678 17.7202 70.5127 16.1333 70.4902L 8.9834 70.4902C 11.1055 98.657 33.4727 121.038 61.6001 123.174L 61.6001 116.015C 61.5757 114.839 62.022 113.702 62.8398 112.857C 63.6577 112.012 64.7793 111.53 65.9541 111.518C 67.145 111.505 68.29 111.977 69.1279 112.824C 69.9658 113.672 70.4248 114.823 70.3999 116.015L 70.3999 123.174C 96.3032 121.205 117.312 101.989 122.146 77.0069C 122.618 74.6156 124.935 73.0585 127.323 73.5269C 129.712 73.9952 131.272 76.312 130.808 78.705C 124.915 109.165 98.0869 132.169 66 132.169C 29.6016 132.169 0 102.53 0 66.0846ZM 94.6455 31.3903C 95.2773 31.0399 95.9858 30.8508 96.708 30.8395C 98.2891 30.8018 99.769 31.6165 100.584 32.9735C 101.399 34.3307 101.424 36.0214 100.65 37.4021L 78.6499 77.0529C 78.2524 77.7651 77.6655 78.353 76.9541 78.7509L 37.354 100.779C 35.6309 101.765 33.4619 101.475 32.0586 100.069C 30.6553 98.6643 30.3647 96.4924 31.3496 94.7672L 53.3496 55.1165C 53.7471 54.4042 54.3345 53.8163 55.0454 53.4185L 94.6455 31.3903ZM 85.4336 46.6263L 73.792 67.6449L 64.4419 58.283L 85.4336 46.6263ZM 67.5586 73.8404L 58.2544 64.5243L 46.5669 85.5428L 67.5586 73.8404Z"/>
</defs>
</svg>
