<svg viewBox="0 0 90 82" version="1.1" xmlns="http://www.w3.org/2000/svg" xmlns:xlink="http://www.w3.org/1999/xlink">
<g id="Canvas" transform="translate(-8214 -1584)">
<g id="Shape">
<use xlink:href="#path0_fill" transform="translate(8214.98 1584.01)" fill="#FFFFFF"/>
</g>
</g>
<defs>
<path id="path0_fill" fill-rule="evenodd" d="M 31.0186 1.25208C 33.9678 0.512085 36.9395 0.109253 39.9248 0.0333252L 40.3594 0.020752C 40.7773 0.0078125 41.1973 -0.00512695 41.6123 0.0020752C 49.9922 0.131592 58.2031 2.8374 65.1123 7.87708C 66.0342 8.48633 66.5459 9.55261 66.4453 10.6527C 66.3447 11.7527 65.6484 12.7085 64.6318 13.1407C 63.6152 13.573 62.4434 13.4116 61.5811 12.7208C 53.1895 6.6001 42.5303 4.53687 32.4561 7.06458C 13.6777 11.7764 2.33789 30.7549 7.0498 49.5333C 11.7617 68.3118 30.7402 79.6514 49.5186 74.9396C 68.2969 70.2278 79.6367 51.2493 74.9248 32.4708C 74.5859 31.4045 74.8672 30.238 75.6572 29.4447C 76.4463 28.6514 77.6113 28.3633 78.6797 28.6971C 79.7471 29.0311 80.541 29.9316 80.7373 31.0332C 86.2383 52.9569 72.8799 75.2511 50.9561 80.7521C 29.0322 86.2529 6.73828 72.8944 1.2373 50.9709C -4.26367 29.0472 9.09473 6.75293 31.0186 1.25208ZM 61.3408 27.8718C 69.2627 19.3444 77.21 10.7899 82.8311 4.90845C 83.3564 4.33423 84.085 3.98694 84.8623 3.93982C 86.1064 3.87012 87.2637 4.5769 87.7705 5.71533C 88.2773 6.85376 88.0273 8.18689 87.1436 9.06482C 81.6289 14.8344 73.6924 23.3896 65.7363 31.9662C 57.748 40.577 49.7402 49.2092 44.1436 55.0648C 43.0244 56.2245 41.1895 56.2936 39.9873 55.2211L 22.9873 40.2211C 22.1836 39.5066 21.8213 38.4175 22.0381 37.364C 22.2549 36.3107 23.0176 35.4529 24.0381 35.114C 25.0596 34.7751 26.1836 35.0066 26.9873 35.7211L 41.7998 48.7836C 47.167 43.1287 54.2432 35.511 61.3408 27.8718Z"/>
</defs>
</svg>
