<svg viewBox="0 0 15 15" version="1.1" xmlns="http://www.w3.org/2000/svg" xmlns:xlink="http://www.w3.org/1999/xlink">
<g id="Canvas" transform="translate(3421 -1485)">
<g id="Shape Copy">
<use xlink:href="#path0_fill" transform="translate(-3421 1485)" fill="#B34426"/>
</g>
</g>
<defs>
<path id="path0_fill" fill-rule="evenodd" d="M 8.59839 1.09875C 9.30664 0.390015 10.2483 0 11.25 0C 13.3176 0 15 1.68237 15 3.74951C 15 4.75122 14.6101 5.69348 13.9016 6.40027L 12.5676 7.73486C 12.4307 7.87219 12.2507 7.94067 12.0708 7.94067C 11.8909 7.94067 11.7107 7.87219 11.5735 7.73486C 11.439 7.60083 11.3704 7.42639 11.3672 7.25061C 11.3643 7.06641 11.4329 6.88123 11.5735 6.7406L 12.9075 5.40662C 13.3501 4.96411 13.5938 4.37573 13.5938 3.74951C 13.5938 2.45764 12.5422 1.40625 11.25 1.40625C 10.6243 1.40625 10.0354 1.65002 9.59253 2.09253L 6.78003 4.90503C 6.3374 5.34753 6.09375 5.93579 6.09375 6.56201C 6.09375 7.36267 6.49878 8.10046 7.17651 8.53552C 7.3396 8.63953 7.44507 8.80078 7.48364 8.97656C 7.52246 9.15234 7.4939 9.34265 7.38892 9.50671C 7.28442 9.66943 7.12402 9.7749 6.94922 9.81323C 6.77246 9.85266 6.5813 9.8241 6.41724 9.71912C 5.33398 9.02441 4.6875 7.84412 4.6875 6.56201C 4.6875 5.56079 5.07739 4.61853 5.78589 3.91125L 8.59839 1.09875ZM 8.05078 5.18616C 8.22754 5.14685 8.4187 5.17542 8.58276 5.28088C 9.66602 5.97559 10.3125 7.1554 10.3125 8.4375C 10.3125 9.43921 9.92236 10.3813 9.21411 11.0887L 6.40161 13.9012C 5.69336 14.61 4.75171 15 3.75 15C 1.68237 15 0 13.3176 0 11.25C 0 10.2483 0.389893 9.30652 1.09888 8.59875L 2.43286 7.26416C 2.56982 7.12634 2.74976 7.05798 2.92969 7.05798C 3.10913 7.05798 3.28931 7.12683 3.42651 7.26416C 3.56104 7.39819 3.62964 7.57263 3.63281 7.74841C 3.63574 7.93262 3.56714 8.1178 3.42651 8.25842L 2.09253 9.5929C 1.65015 10.0354 1.40625 10.6237 1.40625 11.25C 1.40625 12.5424 2.45776 13.5938 3.75 13.5938C 4.37573 13.5938 4.9646 13.35 5.40747 12.907L 8.21997 10.0945C 8.6626 9.65198 8.90625 9.06372 8.90625 8.4375C 8.90625 7.63684 8.50171 6.89905 7.82349 6.46448C 7.6604 6.35999 7.55493 6.19873 7.51636 6.02295C 7.47754 5.84717 7.5061 5.65686 7.61108 5.49329C 7.71558 5.33057 7.87598 5.2251 8.05078 5.18616Z"/>
</defs>
</svg>
