<svg viewBox="0 0 26 26" version="1.1" xmlns="http://www.w3.org/2000/svg" xmlns:xlink="http://www.w3.org/1999/xlink">
<g id="Canvas" transform="translate(3165 -680)">
<g id="Shape Copy">
<use xlink:href="#path0_fill" transform="translate(-3165 680)"/>
</g>
</g>
<defs>
<path id="path0_fill" fill-rule="evenodd" d="M 19.4309 17.9028L 25.6816 24.1534C 26.1062 24.5726 26.1062 25.2625 25.6816 25.6816C 25.2571 26.1061 24.5728 26.1061 24.1482 25.6816L 17.8975 19.4363C 16.0085 20.9857 13.5942 21.9143 10.957 21.9143C 4.90283 21.9143 0 17.0061 0 10.9572C 0 4.90814 4.90283 0 10.957 0C 17.0061 0 21.9143 4.90814 21.9143 10.9572C 21.9143 13.5943 20.9805 16.0139 19.4309 17.9028ZM 2.17554 10.9572C 2.17554 15.7963 6.11279 19.7335 10.9573 19.7335C 15.7964 19.7335 19.7388 15.7963 19.7388 10.9572C 19.7388 6.11798 15.7964 2.17554 10.9573 2.17554C 6.11279 2.17554 2.17554 6.11798 2.17554 10.9572Z"/>
</defs>
</svg>
