<svg viewBox="0 0 17 17" version="1.1" xmlns="http://www.w3.org/2000/svg" xmlns:xlink="http://www.w3.org/1999/xlink">
<g id="Canvas" transform="translate(-231 -4221)">
<g id="Shape Copy">
<use xlink:href="#path0_fill" transform="translate(231 4221)" fill="#FFFFFF"/>
</g>
</g>
<defs>
<path id="path0_fill" fill-rule="evenodd" d="M 12.7049 11.7056L 16.7918 15.7925C 17.0694 16.0669 17.0694 16.5176 16.7918 16.792C 16.5143 17.0693 16.0667 17.0693 15.7892 16.792L 11.7022 12.7085C 10.4671 13.7212 8.88857 14.3286 7.16429 14.3286C 3.20572 14.3286 0 11.1196 0 7.16406C 0 3.20898 3.20572 0 7.16429 0C 11.1194 0 14.3286 3.20898 14.3286 7.16406C 14.3286 8.88867 13.718 10.4707 12.7049 11.7056ZM 1.42245 7.16406C 1.42245 10.3281 3.99673 12.9023 7.16429 12.9023C 10.3284 12.9023 12.9061 10.3281 12.9061 7.16406C 12.9061 4 10.3284 1.42236 7.16429 1.42236C 3.99673 1.42236 1.42245 4 1.42245 7.16406Z"/>
</defs>
</svg>
