<svg viewBox="0 0 123 5" version="1.1" xmlns="http://www.w3.org/2000/svg" xmlns:xlink="http://www.w3.org/1999/xlink">
<g id="Canvas" transform="translate(736 -2726)">
<g id="Combined Shape Copy">
<use xlink:href="#path0_fill" transform="translate(-736 2726)"/>
</g>
</g>
<defs>
<path id="path0_fill" fill-rule="evenodd" d="M 49.4604 3.1355C 50.4691 4.00952 51.6124 5 53.8569 5C 56.1018 5 57.2451 4.00952 58.2538 3.1355C 59.1648 2.34619 59.8843 1.7229 61.4221 1.7229C 61.4479 1.7229 61.4736 1.72192 61.499 1.71997C 61.5243 1.72192 61.5499 1.7229 61.5758 1.7229C 63.1132 1.7229 63.8326 2.34619 64.7433 3.1355C 65.7521 4.00952 66.8953 5 69.14 5C 71.3844 5 72.5276 4.00952 73.5363 3.1355C 74.447 2.34619 75.1663 1.7229 76.7036 1.7229C 78.2407 1.7229 78.9601 2.34619 79.8707 3.1355C 80.8792 4.00952 82.0222 5 84.2665 5C 86.5112 5 87.6544 4.00952 88.663 3.1355C 89.5737 2.34619 90.293 1.7229 91.8303 1.7229C 93.3677 1.7229 94.0871 2.34619 94.9979 3.1355C 96.0066 4.00952 97.1497 5 99.3943 5C 101.639 5 102.782 4.00952 103.791 3.1355C 104.702 2.34619 105.421 1.7229 106.959 1.7229C 108.496 1.7229 109.216 2.34619 110.126 3.1355C 111.135 4.00952 112.278 5 114.523 5C 116.768 5 117.911 4.00952 118.92 3.1355C 119.831 2.34619 120.55 1.7229 122.088 1.7229C 122.59 1.7229 122.998 1.33716 122.998 0.861328C 122.998 0.385742 122.59 0 122.088 0C 119.843 0 118.7 0.990479 117.691 1.8645C 116.78 2.65381 116.06 3.2771 114.523 3.2771C 112.985 3.2771 112.266 2.65381 111.355 1.8645C 110.346 0.990479 109.203 0 106.959 0C 104.714 0 103.571 0.990479 102.562 1.8645C 101.651 2.65381 100.932 3.2771 99.3943 3.2771C 97.8571 3.2771 97.1375 2.65381 96.2268 1.8645C 95.2181 0.990479 94.075 0 91.8303 0C 89.5859 0 88.4426 0.990479 87.434 1.8645C 86.5233 2.65381 85.804 3.2771 84.2665 3.2771C 82.7294 3.2771 82.0102 2.65381 81.0996 1.8645C 80.0911 0.990723 78.9479 0 76.7036 0C 74.4591 0 73.3159 0.990479 72.3073 1.8645C 71.3965 2.65381 70.6772 3.2771 69.14 3.2771C 67.6025 3.2771 66.883 2.65381 65.9723 1.8645C 64.9636 0.990479 63.8203 0 61.5758 0C 61.5499 0 61.5243 0.000976562 61.499 0.00292969C 61.4736 0.000976562 61.4479 0 61.4221 0C 59.1772 0 58.0339 0.990479 57.0251 1.8645C 56.1141 2.65381 55.3946 3.2771 53.8569 3.2771C 52.3195 3.2771 51.6001 2.65381 50.6893 1.8645C 49.6806 0.990479 48.5374 0 46.2927 0C 44.0481 0 42.9048 0.990479 41.8961 1.8645C 40.9854 2.65381 40.2661 3.2771 38.7285 3.2771C 37.1912 3.2771 36.4717 2.65381 35.561 1.8645C 34.5522 0.990479 33.4091 0 31.1645 0C 28.92 0 27.7768 0.990479 26.7682 1.8645C 25.8574 2.65381 25.1381 3.2771 23.6007 3.2771C 22.0635 3.2771 21.3444 2.65381 20.4338 1.8645C 19.4252 0.990723 18.2821 0 16.0378 0C 13.7933 0 12.65 0.990479 11.6415 1.8645C 10.7307 2.65381 10.0114 3.2771 8.47412 3.2771C 6.93671 3.2771 6.21716 2.65381 5.30646 1.8645C 4.29773 0.990479 3.15448 0 0.909973 0C 0.407532 0 0 0.385742 0 0.861328C 0 1.33716 0.407532 1.7229 0.909973 1.7229C 2.44739 1.7229 3.16675 2.34619 4.07751 3.1355C 5.08624 4.00952 6.22949 5 8.47412 5C 10.7186 5 11.8618 4.00952 12.8704 3.1355C 13.7811 2.34619 14.5005 1.7229 16.0378 1.7229C 17.5749 1.7229 18.2943 2.34619 19.2048 3.1355C 20.2134 4.00952 21.3563 5 23.6007 5C 25.8453 5 26.9886 4.00952 27.9971 3.1355C 28.9079 2.34619 29.6272 1.7229 31.1645 1.7229C 32.7019 1.7229 33.4213 2.34619 34.332 3.1355C 35.3408 4.00952 36.4838 5 38.7285 5C 40.9731 5 42.1163 4.00952 43.1249 3.1355C 44.0358 2.34619 44.7553 1.7229 46.2927 1.7229C 47.8301 1.7229 48.5497 2.34619 49.4604 3.1355Z"/>
</defs>
</svg>
