<svg viewBox="0 0 56 5" version="1.1" xmlns="http://www.w3.org/2000/svg" xmlns:xlink="http://www.w3.org/1999/xlink">
<g id="Canvas" transform="translate(1276 -1336)">
<g id="Page 1 Copy 2">
<use xlink:href="#path0_fill" transform="translate(-1276 1336)" fill="#FFFFFF"/>
</g>
</g>
<defs>
<path id="path0_fill" fill-rule="evenodd" d="M 48.3858 5C 46.3693 5 45.3422 4.00948 44.4359 3.13553C 43.6177 2.3463 42.9713 1.7229 41.5901 1.7229C 40.2088 1.7229 39.5624 2.3463 38.7441 3.13553C 37.8379 4.00948 36.8108 5 34.7942 5C 32.7776 5 31.7506 4.00948 30.8444 3.13553C 30.0262 2.3463 29.3799 1.7229 27.9986 1.7229C 26.6175 1.7229 25.9713 2.3463 25.153 3.13553C 24.2469 4.00948 23.2198 5 21.2032 5C 19.1869 5 18.16 4.00948 17.2539 3.13553C 16.4358 2.3463 15.7895 1.7229 14.4086 1.7229C 13.0275 1.7229 12.3812 2.3463 11.563 3.13553C 10.6568 4.00948 9.62974 5 7.61326 5C 5.59665 5 4.56954 4.00948 3.66329 3.13553C 2.84506 2.3463 2.19879 1.7229 0.817546 1.7229C 0.366124 1.7229 0 1.33726 0 0.86145C 0 0.385786 0.366124 0 0.817546 0C 2.83402 0 3.86113 0.990524 4.76738 1.86447C 5.58561 2.6537 6.23202 3.2771 7.61326 3.2771C 8.99437 3.2771 9.64064 2.6537 10.4589 1.86461C 11.365 0.990524 12.3921 0 14.4086 0C 16.4249 0 17.4519 0.990668 18.358 1.86461C 19.1761 2.65384 19.8222 3.2771 21.2032 3.2771C 22.5844 3.2771 23.2307 2.6537 24.0489 1.86461C 24.9551 0.990524 25.9822 0 27.9986 0C 30.0153 0 31.0422 0.990524 31.9485 1.86461C 32.7667 2.6537 33.4131 3.2771 34.7942 3.2771C 36.1756 3.2771 36.8219 2.6537 37.6401 1.86461C 38.5463 0.990524 39.5735 0 41.5901 0C 43.6067 0 44.6338 0.990524 45.54 1.86461C 46.3583 2.6537 47.0045 3.2771 48.3858 3.2771C 49.7673 3.2771 50.4137 2.6537 51.2322 1.86447C 52.1385 0.990524 53.1657 0 55.1825 0C 55.6339 0 56 0.385786 56 0.86145C 56 1.33726 55.6339 1.7229 55.1825 1.7229C 53.8009 1.7229 53.1545 2.3463 52.336 3.13553C 51.4298 4.00948 50.4027 5 48.3858 5"/>
</defs>
</svg>
